<?xml version="1.0" encoding="UTF-8"?>
<svg xmlns="http://www.w3.org/2000/svg" width="1000" height="1600">
<style type="text/css"><![CDATA[
            body { width: 1200px !important; height: 100% !important; }
                
            body {
                width: 1500px;
                height: 100%;
            }
            svg {
                overflow: visible;
            }
            .text {
                font: 12px sans-serif;
                font-weight: 600;
            }
            .secondaryText {
                font: 10px sans-serif;
            }
            .link {
                fill: none;
                stroke: black;
                stroke-width: 2px;
            }
            .subtleLink {
                fill: none;
                /*stroke: gray;*/
                stroke-width: 1px;
                stroke-dasharray: 5, 5;
                stroke-dashoffset: 0;
            }
            .rect {
                stroke: black;
                stroke-width: 1px;
            }
            .nodeModule {
                fill: #90caf9;
            }
            .sourceFile {
                fill: whitesmoke;
            }
            .unknown {
                fill: #c0c0c0;
            }
        ]]></style>
<g transform="translate(90,40)">
<path class="link" d="M82.0234375,572.438524590164H263.3333333333333V80.45081967213115H273.3333333333333">
</path>
<path class="link" d="M82.0234375,572.438524590164H263.3333333333333V402.25409836065575H273.3333333333333">
</path>
<path class="link" d="M82.0234375,572.438524590164H263.3333333333333V631.2295081967213H273.3333333333333">
</path>
<path class="link" d="M82.0234375,572.438524590164H263.3333333333333V1064.4262295081967H273.3333333333333">
</path>
<path class="link" d="M353.3489583333333,80.45081967213115H536.6666666666666V24.75409836065574H546.6666666666666">
</path>
<path class="link" d="M353.3489583333333,80.45081967213115H536.6666666666666V61.88524590163935H546.6666666666666">
</path>
<path class="link" d="M353.3489583333333,80.45081967213115H536.6666666666666V99.01639344262296H546.6666666666666">
</path>
<path class="link" d="M353.3489583333333,80.45081967213115H536.6666666666666V136.14754098360658H546.6666666666666">
</path>
<path class="link" d="M377.8177083333333,402.25409836065575H536.6666666666666V222.78688524590166H546.6666666666666">
</path>
<path class="link" d="M377.8177083333333,402.25409836065575H536.6666666666666V259.91803278688525H546.6666666666666">
</path>
<path class="link" d="M377.8177083333333,402.25409836065575H536.6666666666666V297.04918032786884H546.6666666666666">
</path>
<path class="link" d="M377.8177083333333,402.25409836065575H536.6666666666666V368.21721311475414H546.6666666666666">
</path>
<path class="link" d="M377.8177083333333,402.25409836065575H536.6666666666666V439.3852459016394H546.6666666666666">
</path>
<path class="link" d="M377.8177083333333,402.25409836065575H536.6666666666666V581.7213114754098H546.6666666666666">
</path>
<path class="link" d="M347.2395833333333,631.2295081967213H536.6666666666666V631.2295081967213H546.6666666666666">
</path>
<path class="link" d="M379.4739583333333,1064.4262295081967H536.6666666666666V680.7377049180328H546.6666666666666">
</path>
<path class="link" d="M379.4739583333333,1064.4262295081967H536.6666666666666V717.8688524590165H546.6666666666666">
</path>
<path class="link" d="M379.4739583333333,1064.4262295081967H536.6666666666666V804.5081967213115H546.6666666666666">
</path>
<path class="link" d="M379.4739583333333,1064.4262295081967H536.6666666666666V928.2786885245902H546.6666666666666">
</path>
<path class="link" d="M379.4739583333333,1064.4262295081967H536.6666666666666V1089.1803278688526H546.6666666666666">
</path>
<path class="link" d="M379.4739583333333,1064.4262295081967H536.6666666666666V1287.2131147540983H546.6666666666666">
</path>
<path class="link" d="M379.4739583333333,1064.4262295081967H536.6666666666666V1448.1147540983607H546.6666666666666">
</path>
<path class="link" d="M680.6041666666666,136.14754098360658H810V61.88524590163935H820">
</path>
<path class="link" d="M680.6041666666666,136.14754098360658H810V99.01639344262296H820">
</path>
<path class="link" d="M680.6041666666666,136.14754098360658H810V136.14754098360658H820">
</path>
<path class="link" d="M680.6041666666666,136.14754098360658H810V173.27868852459017H820">
</path>
<path class="link" d="M680.6041666666666,136.14754098360658H810V210.40983606557378H820">
</path>
<path class="link" d="M625.0260416666666,297.04918032786884H810V259.91803278688525H820">
</path>
<path class="link" d="M625.0260416666666,297.04918032786884H810V297.04918032786884H820">
</path>
<path class="link" d="M625.0260416666666,297.04918032786884H810V334.1803278688525H820">
</path>
<path class="link" d="M660.0416666666666,439.3852459016394H810V383.688524590164H820">
</path>
<path class="link" d="M660.0416666666666,439.3852459016394H810V420.81967213114757H820">
</path>
<path class="link" d="M660.0416666666666,439.3852459016394H810V457.95081967213116H820">
</path>
<path class="link" d="M660.0416666666666,439.3852459016394H810V495.0819672131148H820">
</path>
<path class="link" d="M679.5104166666666,581.7213114754098H810V544.5901639344263H820">
</path>
<path class="link" d="M679.5104166666666,581.7213114754098H810V581.7213114754098H820">
</path>
<path class="link" d="M679.5104166666666,581.7213114754098H810V618.8524590163935H820">
</path>
<path class="link" d="M653.3854166666666,717.8688524590165H810V717.8688524590165H820">
</path>
<path class="link" d="M637.8072916666666,804.5081967213115H810V767.377049180328H820">
</path>
<path class="link" d="M637.8072916666666,804.5081967213115H810V804.5081967213115H820">
</path>
<path class="link" d="M637.8072916666666,804.5081967213115H810V841.6393442622951H820">
</path>
<path class="link" d="M637.2604166666666,928.2786885245902H810V891.1475409836066H820">
</path>
<path class="link" d="M637.2604166666666,928.2786885245902H810V928.2786885245902H820">
</path>
<path class="link" d="M637.2604166666666,928.2786885245902H810V965.4098360655738H820">
</path>
<path class="link" d="M635.6041666666666,1089.1803278688526H810V1014.9180327868853H820">
</path>
<path class="link" d="M635.6041666666666,1089.1803278688526H810V1052.049180327869H820">
</path>
<path class="link" d="M635.6041666666666,1089.1803278688526H810V1089.1803278688526H820">
</path>
<path class="link" d="M635.6041666666666,1089.1803278688526H810V1126.311475409836H820">
</path>
<path class="link" d="M635.6041666666666,1089.1803278688526H810V1163.4426229508197H820">
</path>
<path class="link" d="M634.4791666666666,1287.2131147540983H810V1212.9508196721313H820">
</path>
<path class="link" d="M634.4791666666666,1287.2131147540983H810V1250.081967213115H820">
</path>
<path class="link" d="M634.4791666666666,1287.2131147540983H810V1287.2131147540983H820">
</path>
<path class="link" d="M634.4791666666666,1287.2131147540983H810V1324.344262295082H820">
</path>
<path class="link" d="M634.4791666666666,1287.2131147540983H810V1361.4754098360656H820">
</path>
<path class="link" d="M657.8229166666666,1448.1147540983607H810V1410.983606557377H820">
</path>
<path class="link" d="M657.8229166666666,1448.1147540983607H810V1448.1147540983607H820">
</path>
<path class="link" d="M657.8229166666666,1448.1147540983607H810V1485.2459016393443H820">
</path>
<g class="node" transform="translate(0,572.438524590164)">
<rect x="0" y="-17.5" width="82.0234375" height="35" rx="5" class="rect sourceFile">
</rect>
<text y="3" x="7" class="text" style="text-anchor: start;">src/index.ts</text>
<text y="12" x="7" class="secondaryText" style="text-anchor: start;">
</text>
</g>
<g class="node" transform="translate(273.3333333333333,80.45081967213115)">
<rect x="0" y="-17.5" width="80.015625" height="35" rx="5" class="rect sourceFile">
</rect>
<text y="-2" x="7" class="text" style="text-anchor: start;">traversal</text>
<text y="12" x="7" class="secondaryText" style="text-anchor: start;">src/traversal.ts</text>
</g>
<g class="node" transform="translate(273.3333333333333,402.25409836065575)">
<rect x="0" y="-17.5" width="104.484375" height="35" rx="5" class="rect sourceFile">
</rect>
<text y="-2" x="7" class="text" style="text-anchor: start;">commandLine</text>
<text y="12" x="7" class="secondaryText" style="text-anchor: start;">src/commandLine.ts</text>
</g>
<g class="node" transform="translate(273.3333333333333,631.2295081967213)">
<rect x="0" y="-17.5" width="73.90625" height="35" rx="5" class="rect sourceFile">
</rect>
<text y="-2" x="7" class="text" style="text-anchor: start;">types</text>
<text y="12" x="7" class="secondaryText" style="text-anchor: start;">src/types.d.ts</text>
</g>
<g class="node" transform="translate(273.3333333333333,1064.4262295081967)">
<rect x="0" y="-17.5" width="106.140625" height="35" rx="5" class="rect sourceFile">
</rect>
<text y="-2" x="7" class="text" style="text-anchor: start;">outputFormats</text>
<text y="12" x="7" class="secondaryText" style="text-anchor: start;">src/outputFormats.ts</text>
</g>
<g class="node" transform="translate(546.6666666666666,24.75409836065574)">
<rect x="0" y="-17.5" width="74.35546875" height="35" rx="5" class="rect nodeModule">
</rect>
<text y="3" x="7" class="text" style="text-anchor: start;">typescript</text>
<text y="12" x="7" class="secondaryText" style="text-anchor: start;">
</text>
</g>
<g class="node" transform="translate(546.6666666666666,61.88524590163935)">
<rect x="0" y="-17.5" width="26.99609375" height="35" rx="5" class="rect unknown">
</rect>
<text y="3" x="7" class="text" style="text-anchor: start;">fs</text>
<text y="12" x="7" class="secondaryText" style="text-anchor: start;">
</text>
</g>
<g class="node" transform="translate(546.6666666666666,99.01639344262296)">
<rect x="0" y="-17.5" width="73.90625" height="35" rx="5" class="rect sourceFile">
</rect>
<text y="-2" x="7" class="text" style="text-anchor: start;">types</text>
<text y="12" x="7" class="secondaryText" style="text-anchor: start;">src/types.d.ts</text>
</g>
<g class="node" transform="translate(546.6666666666666,136.14754098360658)">
<rect x="0" y="-17.5" width="133.9375" height="35" rx="5" class="rect sourceFile">
</rect>
<text y="-2" x="7" class="text" style="text-anchor: start;">importParser</text>
<text y="12" x="7" class="secondaryText" style="text-anchor: start;">src/helpers/importParser.ts</text>
</g>
<g class="node" transform="translate(546.6666666666666,222.78688524590166)">
<rect x="0" y="-17.5" width="84.3515625" height="35" rx="5" class="rect nodeModule">
</rect>
<text y="3" x="7" class="text" style="text-anchor: start;">commander</text>
<text y="12" x="7" class="secondaryText" style="text-anchor: start;">
</text>
</g>
<g class="node" transform="translate(546.6666666666666,259.91803278688525)">
<rect x="0" y="-17.5" width="73.90625" height="35" rx="5" class="rect sourceFile">
</rect>
<text y="-2" x="7" class="text" style="text-anchor: start;">types</text>
<text y="12" x="7" class="secondaryText" style="text-anchor: start;">src/types.d.ts</text>
</g>
<g class="node" transform="translate(546.6666666666666,297.04918032786884)">
<rect x="0" y="-17.5" width="78.359375" height="35" rx="5" class="rect sourceFile">
</rect>
<text y="-2" x="7" class="text" style="text-anchor: start;">tsConfig</text>
<text y="12" x="7" class="secondaryText" style="text-anchor: start;">src/tsConfig.ts</text>
</g>
<g class="node" transform="translate(546.6666666666666,368.21721311475414)">
<rect x="0" y="-17.5" width="85.59375" height="35" rx="5" class="rect sourceFile">
</rect>
<text y="-2" x="7" class="text" style="text-anchor: start;">log</text>
<text y="12" x="7" class="secondaryText" style="text-anchor: start;">src/output/log.ts</text>
</g>
<g class="node" transform="translate(546.6666666666666,439.3852459016394)">
<rect x="0" y="-17.5" width="113.375" height="35" rx="5" class="rect sourceFile">
</rect>
<text y="-2" x="7" class="text" style="text-anchor: start;">configFileParser</text>
<text y="12" x="7" class="secondaryText" style="text-anchor: start;">src/configFileParser.ts</text>
</g>
<g class="node" transform="translate(546.6666666666666,581.7213114754098)">
<rect x="0" y="-17.5" width="132.84375" height="35" rx="5" class="rect sourceFile">
</rect>
<text y="-2" x="7" class="text" style="text-anchor: start;">optionMerge</text>
<text y="12" x="7" class="secondaryText" style="text-anchor: start;">src/helpers/optionMerge.ts</text>
</g>
<g class="node" transform="translate(546.6666666666666,631.2295081967213)">
<rect x="0" y="-17.5" width="74.35546875" height="35" rx="5" class="rect nodeModule">
</rect>
<text y="3" x="7" class="text" style="text-anchor: start;">typescript</text>
<text y="12" x="7" class="secondaryText" style="text-anchor: start;">
</text>
</g>
<g class="node" transform="translate(546.6666666666666,680.7377049180328)">
<rect x="0" y="-17.5" width="73.90625" height="35" rx="5" class="rect sourceFile">
</rect>
<text y="-2" x="7" class="text" style="text-anchor: start;">types</text>
<text y="12" x="7" class="secondaryText" style="text-anchor: start;">src/types.d.ts</text>
</g>
<g class="node" transform="translate(546.6666666666666,717.8688524590165)">
<rect x="0" y="-17.5" width="106.71875" height="35" rx="5" class="rect sourceFile">
</rect>
<text y="-2" x="7" class="text" style="text-anchor: start;">console</text>
<text y="12" x="7" class="secondaryText" style="text-anchor: start;">src/output/console.ts</text>
</g>
<g class="node" transform="translate(546.6666666666666,804.5081967213115)">
<rect x="0" y="-17.5" width="91.140625" height="35" rx="5" class="rect sourceFile">
</rect>
<text y="-2" x="7" class="text" style="text-anchor: start;">html</text>
<text y="12" x="7" class="secondaryText" style="text-anchor: start;">src/output/html.ts</text>
</g>
<g class="node" transform="translate(546.6666666666666,928.2786885245902)">
<rect x="0" y="-17.5" width="90.59375" height="35" rx="5" class="rect sourceFile">
</rect>
<text y="-2" x="7" class="text" style="text-anchor: start;">json</text>
<text y="12" x="7" class="secondaryText" style="text-anchor: start;">src/output/json.ts</text>
</g>
<g class="node" transform="translate(546.6666666666666,1089.1803278688526)">
<rect x="0" y="-17.5" width="88.9375" height="35" rx="5" class="rect sourceFile">
</rect>
<text y="-2" x="7" class="text" style="text-anchor: start;">png</text>
<text y="12" x="7" class="secondaryText" style="text-anchor: start;">src/output/png.ts</text>
</g>
<g class="node" transform="translate(546.6666666666666,1287.2131147540983)">
<rect x="0" y="-17.5" width="87.8125" height="35" rx="5" class="rect sourceFile">
</rect>
<text y="-2" x="7" class="text" style="text-anchor: start;">svg</text>
<text y="12" x="7" class="secondaryText" style="text-anchor: start;">src/output/svg.ts</text>
</g>
<g class="node" transform="translate(546.6666666666666,1448.1147540983607)">
<rect x="0" y="-17.5" width="111.15625" height="35" rx="5" class="rect sourceFile">
</rect>
<text y="-2" x="7" class="text" style="text-anchor: start;">mermaid</text>
<text y="12" x="7" class="secondaryText" style="text-anchor: start;">src/output/mermaid.ts</text>
</g>
<g class="node" transform="translate(820,61.88524590163935)">
<rect x="0" y="-17.5" width="74.35546875" height="35" rx="5" class="rect nodeModule">
</rect>
<text y="3" x="7" class="text" style="text-anchor: start;">typescript</text>
<text y="12" x="7" class="secondaryText" style="text-anchor: start;">
</text>
</g>
<g class="node" transform="translate(820,99.01639344262296)">
<rect x="0" y="-17.5" width="40.34375" height="35" rx="5" class="rect unknown">
</rect>
<text y="3" x="7" class="text" style="text-anchor: start;">path</text>
<text y="12" x="7" class="secondaryText" style="text-anchor: start;">
</text>
</g>
<g class="node" transform="translate(820,136.14754098360658)">
<rect x="0" y="-17.5" width="26.99609375" height="35" rx="5" class="rect unknown">
</rect>
<text y="3" x="7" class="text" style="text-anchor: start;">fs</text>
<text y="12" x="7" class="secondaryText" style="text-anchor: start;">
</text>
</g>
<g class="node" transform="translate(820,173.27868852459017)">
<rect x="0" y="-17.5" width="86.71875" height="35" rx="5" class="rect nodeModule">
</rect>
<text y="3" x="7" class="text" style="text-anchor: start;">@types/uuid</text>
<text y="12" x="7" class="secondaryText" style="text-anchor: start;">
</text>
</g>
<g class="node" transform="translate(820,210.40983606557378)">
<rect x="0" y="-17.5" width="73.90625" height="35" rx="5" class="rect sourceFile">
</rect>
<text y="-2" x="7" class="text" style="text-anchor: start;">types</text>
<text y="12" x="7" class="secondaryText" style="text-anchor: start;">src/types.d.ts</text>
</g>
<g class="node" transform="translate(820,259.91803278688525)">
<rect x="0" y="-17.5" width="74.35546875" height="35" rx="5" class="rect nodeModule">
</rect>
<text y="3" x="7" class="text" style="text-anchor: start;">typescript</text>
<text y="12" x="7" class="secondaryText" style="text-anchor: start;">
</text>
</g>
<g class="node" transform="translate(820,297.04918032786884)">
<rect x="0" y="-17.5" width="26.99609375" height="35" rx="5" class="rect unknown">
</rect>
<text y="3" x="7" class="text" style="text-anchor: start;">fs</text>
<text y="12" x="7" class="secondaryText" style="text-anchor: start;">
</text>
</g>
<g class="node" transform="translate(820,334.1803278688525)">
<rect x="0" y="-17.5" width="40.34375" height="35" rx="5" class="rect unknown">
</rect>
<text y="3" x="7" class="text" style="text-anchor: start;">path</text>
<text y="12" x="7" class="secondaryText" style="text-anchor: start;">
</text>
</g>
<g class="node" transform="translate(820,383.688524590164)">
<rect x="0" y="-17.5" width="40.34375" height="35" rx="5" class="rect unknown">
</rect>
<text y="3" x="7" class="text" style="text-anchor: start;">path</text>
<text y="12" x="7" class="secondaryText" style="text-anchor: start;">
</text>
</g>
<g class="node" transform="translate(820,420.81967213114757)">
<rect x="0" y="-17.5" width="73.90625" height="35" rx="5" class="rect sourceFile">
</rect>
<text y="-2" x="7" class="text" style="text-anchor: start;">types</text>
<text y="12" x="7" class="secondaryText" style="text-anchor: start;">src/types.d.ts</text>
</g>
<g class="node" transform="translate(820,457.95081967213116)">
<rect x="0" y="-17.5" width="74.35546875" height="35" rx="5" class="rect nodeModule">
</rect>
<text y="3" x="7" class="text" style="text-anchor: start;">typescript</text>
<text y="12" x="7" class="secondaryText" style="text-anchor: start;">
</text>
</g>
<g class="node" transform="translate(820,495.0819672131148)">
<rect x="0" y="-17.5" width="26.99609375" height="35" rx="5" class="rect unknown">
</rect>
<text y="3" x="7" class="text" style="text-anchor: start;">fs</text>
<text y="12" x="7" class="secondaryText" style="text-anchor: start;">
</text>
</g>
<g class="node" transform="translate(820,544.5901639344263)">
<rect x="0" y="-17.5" width="106.140625" height="35" rx="5" class="rect sourceFile">
</rect>
<text y="-2" x="7" class="text" style="text-anchor: start;">outputFormats</text>
<text y="12" x="7" class="secondaryText" style="text-anchor: start;">src/outputFormats.ts</text>
</g>
<g class="node" transform="translate(820,581.7213114754098)">
<rect x="0" y="-17.5" width="73.90625" height="35" rx="5" class="rect sourceFile">
</rect>
<text y="-2" x="7" class="text" style="text-anchor: start;">types</text>
<text y="12" x="7" class="secondaryText" style="text-anchor: start;">src/types.d.ts</text>
</g>
<g class="node" transform="translate(820,618.8524590163935)">
<rect x="0" y="-17.5" width="26.99609375" height="35" rx="5" class="rect unknown">
</rect>
<text y="3" x="7" class="text" style="text-anchor: start;">fs</text>
<text y="12" x="7" class="secondaryText" style="text-anchor: start;">
</text>
</g>
<g class="node" transform="translate(820,717.8688524590165)">
<rect x="0" y="-17.5" width="73.90625" height="35" rx="5" class="rect sourceFile">
</rect>
<text y="-2" x="7" class="text" style="text-anchor: start;">types</text>
<text y="12" x="7" class="secondaryText" style="text-anchor: start;">src/types.d.ts</text>
</g>
<g class="node" transform="translate(820,767.377049180328)">
<rect x="0" y="-17.5" width="26.99609375" height="35" rx="5" class="rect unknown">
</rect>
<text y="3" x="7" class="text" style="text-anchor: start;">fs</text>
<text y="12" x="7" class="secondaryText" style="text-anchor: start;">
</text>
</g>
<g class="node" transform="translate(820,804.5081967213115)">
<rect x="0" y="-17.5" width="73.90625" height="35" rx="5" class="rect sourceFile">
</rect>
<text y="-2" x="7" class="text" style="text-anchor: start;">types</text>
<text y="12" x="7" class="secondaryText" style="text-anchor: start;">src/types.d.ts</text>
</g>
<g class="node" transform="translate(820,841.6393442622951)">
<rect x="0" y="-17.5" width="40.34375" height="35" rx="5" class="rect unknown">
</rect>
<text y="3" x="7" class="text" style="text-anchor: start;">path</text>
<text y="12" x="7" class="secondaryText" style="text-anchor: start;">
</text>
</g>
<g class="node" transform="translate(820,891.1475409836066)">
<rect x="0" y="-17.5" width="40.34375" height="35" rx="5" class="rect unknown">
</rect>
<text y="3" x="7" class="text" style="text-anchor: start;">path</text>
<text y="12" x="7" class="secondaryText" style="text-anchor: start;">
</text>
</g>
<g class="node" transform="translate(820,928.2786885245902)">
<rect x="0" y="-17.5" width="73.90625" height="35" rx="5" class="rect sourceFile">
</rect>
<text y="-2" x="7" class="text" style="text-anchor: start;">types</text>
<text y="12" x="7" class="secondaryText" style="text-anchor: start;">src/types.d.ts</text>
</g>
<g class="node" transform="translate(820,965.4098360655738)">
<rect x="0" y="-17.5" width="26.99609375" height="35" rx="5" class="rect unknown">
</rect>
<text y="3" x="7" class="text" style="text-anchor: start;">fs</text>
<text y="12" x="7" class="secondaryText" style="text-anchor: start;">
</text>
</g>
<g class="node" transform="translate(820,1014.9180327868853)">
<rect x="0" y="-17.5" width="127.31640625" height="35" rx="5" class="rect nodeModule">
</rect>
<text y="3" x="7" class="text" style="text-anchor: start;">node-html-to-image</text>
<text y="12" x="7" class="secondaryText" style="text-anchor: start;">
</text>
</g>
<g class="node" transform="translate(820,1052.049180327869)">
<rect x="0" y="-17.5" width="73.90625" height="35" rx="5" class="rect sourceFile">
</rect>
<text y="-2" x="7" class="text" style="text-anchor: start;">types</text>
<text y="12" x="7" class="secondaryText" style="text-anchor: start;">src/types.d.ts</text>
</g>
<g class="node" transform="translate(820,1089.1803278688526)">
<rect x="0" y="-17.5" width="91.140625" height="35" rx="5" class="rect sourceFile">
</rect>
<text y="-2" x="7" class="text" style="text-anchor: start;">html</text>
<text y="12" x="7" class="secondaryText" style="text-anchor: start;">src/output/html.ts</text>
</g>
<g class="node" transform="translate(820,1126.311475409836)">
<rect x="0" y="-17.5" width="40.34375" height="35" rx="5" class="rect unknown">
</rect>
<text y="3" x="7" class="text" style="text-anchor: start;">path</text>
<text y="12" x="7" class="secondaryText" style="text-anchor: start;">
</text>
</g>
<g class="node" transform="translate(820,1163.4426229508197)">
<rect x="0" y="-17.5" width="26.99609375" height="35" rx="5" class="rect unknown">
</rect>
<text y="3" x="7" class="text" style="text-anchor: start;">fs</text>
<text y="12" x="7" class="secondaryText" style="text-anchor: start;">
</text>
</g>
<g class="node" transform="translate(820,1212.9508196721313)">
<rect x="0" y="-17.5" width="74.337890625" height="35" rx="5" class="rect nodeModule">
</rect>
<text y="3" x="7" class="text" style="text-anchor: start;">puppeteer</text>
<text y="12" x="7" class="secondaryText" style="text-anchor: start;">
</text>
</g>
<g class="node" transform="translate(820,1250.081967213115)">
<rect x="0" y="-17.5" width="73.90625" height="35" rx="5" class="rect sourceFile">
</rect>
<text y="-2" x="7" class="text" style="text-anchor: start;">types</text>
<text y="12" x="7" class="secondaryText" style="text-anchor: start;">src/types.d.ts</text>
</g>
<g class="node" transform="translate(820,1287.2131147540983)">
<rect x="0" y="-17.5" width="91.140625" height="35" rx="5" class="rect sourceFile">
</rect>
<text y="-2" x="7" class="text" style="text-anchor: start;">html</text>
<text y="12" x="7" class="secondaryText" style="text-anchor: start;">src/output/html.ts</text>
</g>
<g class="node" transform="translate(820,1324.344262295082)">
<rect x="0" y="-17.5" width="40.34375" height="35" rx="5" class="rect unknown">
</rect>
<text y="3" x="7" class="text" style="text-anchor: start;">path</text>
<text y="12" x="7" class="secondaryText" style="text-anchor: start;">
</text>
</g>
<g class="node" transform="translate(820,1361.4754098360656)">
<rect x="0" y="-17.5" width="26.99609375" height="35" rx="5" class="rect unknown">
</rect>
<text y="3" x="7" class="text" style="text-anchor: start;">fs</text>
<text y="12" x="7" class="secondaryText" style="text-anchor: start;">
</text>
</g>
<g class="node" transform="translate(820,1410.983606557377)">
<rect x="0" y="-17.5" width="73.90625" height="35" rx="5" class="rect sourceFile">
</rect>
<text y="-2" x="7" class="text" style="text-anchor: start;">types</text>
<text y="12" x="7" class="secondaryText" style="text-anchor: start;">src/types.d.ts</text>
</g>
<g class="node" transform="translate(820,1448.1147540983607)">
<rect x="0" y="-17.5" width="26.99609375" height="35" rx="5" class="rect unknown">
</rect>
<text y="3" x="7" class="text" style="text-anchor: start;">fs</text>
<text y="12" x="7" class="secondaryText" style="text-anchor: start;">
</text>
</g>
<g class="node" transform="translate(820,1485.2459016393443)">
<rect x="0" y="-17.5" width="40.34375" height="35" rx="5" class="rect unknown">
</rect>
<text y="3" x="7" class="text" style="text-anchor: start;">path</text>
<text y="12" x="7" class="secondaryText" style="text-anchor: start;">
</text>
</g>
</g>
</svg>