<?xml version="1.0" encoding="UTF-8"?>
<svg xmlns="http://www.w3.org/2000/svg" width="1000" height="1600">
<style type="text/css"><![CDATA[
            body { width: 1200px !important; height: 100% !important; }
                
            body {
                width: 1500px;
                height: 100%;
            }
            svg {
                overflow: visible;
            }
            .text {
                font: 12px sans-serif;
                font-weight: 600;
            }
            .secondaryText {
                font: 10px sans-serif;
            }
            .link {
                fill: none;
                stroke: black;
                stroke-width: 2px;
            }
            .subtleLink {
                fill: none;
                /*stroke: gray;*/
                stroke-width: 1px;
                stroke-dasharray: 5, 5;
                stroke-dashoffset: 0;
            }
            .rect {
                stroke: black;
                stroke-width: 1px;
            }
            .nodeModule {
                fill: #90caf9;
            }
            .sourceFile {
                fill: whitesmoke;
            }
            .unknown {
                fill: #c0c0c0;
            }
        ]]></style>
<g transform="translate(90,40)">
<path class="link" d="M82.0234375,574.6558704453441H263.3333333333333V79.47368421052632H273.3333333333333">
</path>
<path class="link" d="M82.0234375,574.6558704453441H263.3333333333333V406.53846153846155H273.3333333333333">
</path>
<path class="link" d="M82.0234375,574.6558704453441H263.3333333333333V641.9028340080971H273.3333333333333">
</path>
<path class="link" d="M82.0234375,574.6558704453441H263.3333333333333V1069.8380566801618H273.3333333333333">
</path>
<path class="link" d="M353.3489583333333,79.47368421052632H536.6666666666666V24.453441295546558H546.6666666666666">
</path>
<path class="link" d="M353.3489583333333,79.47368421052632H536.6666666666666V61.13360323886639H546.6666666666666">
</path>
<path class="link" d="M353.3489583333333,79.47368421052632H536.6666666666666V97.81376518218623H546.6666666666666">
</path>
<path class="link" d="M353.3489583333333,79.47368421052632H536.6666666666666V134.49392712550608H546.6666666666666">
</path>
<path class="link" d="M390.0364583333333,406.53846153846155H536.6666666666666V220.08097165991902H546.6666666666666">
</path>
<path class="link" d="M390.0364583333333,406.53846153846155H536.6666666666666V256.7611336032389H546.6666666666666">
</path>
<path class="link" d="M390.0364583333333,406.53846153846155H536.6666666666666V293.4412955465587H546.6666666666666">
</path>
<path class="link" d="M390.0364583333333,406.53846153846155H536.6666666666666V434.0485829959514H546.6666666666666">
</path>
<path class="link" d="M390.0364583333333,406.53846153846155H536.6666666666666V592.995951417004H546.6666666666666">
</path>
<path class="link" d="M347.2395833333333,641.9028340080971H536.6666666666666V641.9028340080971H546.6666666666666">
</path>
<path class="link" d="M379.4739583333333,1069.8380566801618H536.6666666666666V690.8097165991902H546.6666666666666">
</path>
<path class="link" d="M379.4739583333333,1069.8380566801618H536.6666666666666V727.48987854251H546.6666666666666">
</path>
<path class="link" d="M379.4739583333333,1069.8380566801618H536.6666666666666V813.0769230769231H546.6666666666666">
</path>
<path class="link" d="M379.4739583333333,1069.8380566801618H536.6666666666666V935.3441295546559H546.6666666666666">
</path>
<path class="link" d="M379.4739583333333,1069.8380566801618H536.6666666666666V1094.2914979757084H546.6666666666666">
</path>
<path class="link" d="M379.4739583333333,1069.8380566801618H536.6666666666666V1289.919028340081H546.6666666666666">
</path>
<path class="link" d="M379.4739583333333,1069.8380566801618H536.6666666666666V1448.8663967611335H546.6666666666666">
</path>
<path class="link" d="M680.6041666666666,134.49392712550608H810V61.13360323886639H820">
</path>
<path class="link" d="M680.6041666666666,134.49392712550608H810V97.81376518218623H820">
</path>
<path class="link" d="M680.6041666666666,134.49392712550608H810V134.49392712550608H820">
</path>
<path class="link" d="M680.6041666666666,134.49392712550608H810V171.1740890688259H820">
</path>
<path class="link" d="M680.6041666666666,134.49392712550608H810V207.85425101214574H820">
</path>
<path class="link" d="M660.6041666666666,293.4412955465587H810V256.7611336032389H820">
</path>
<path class="link" d="M660.6041666666666,293.4412955465587H810V293.4412955465587H820">
</path>
<path class="link" d="M660.6041666666666,293.4412955465587H810V330.12145748987854H820">
</path>
<path class="link" d="M695.6197916666666,434.0485829959514H810V379.02834008097165H820">
</path>
<path class="link" d="M695.6197916666666,434.0485829959514H810V415.7085020242915H820">
</path>
<path class="link" d="M695.6197916666666,434.0485829959514H810V452.3886639676113H820">
</path>
<path class="link" d="M695.6197916666666,434.0485829959514H810V489.06882591093114H820">
</path>
<path class="link" d="M656.1510416666666,592.995951417004H810V537.9757085020243H820">
</path>
<path class="link" d="M656.1510416666666,592.995951417004H810V574.6558704453441H820">
</path>
<path class="link" d="M656.1510416666666,592.995951417004H810V611.336032388664H820">
</path>
<path class="link" d="M656.1510416666666,592.995951417004H810V648.0161943319838H820">
</path>
<path class="link" d="M653.3854166666666,727.48987854251H810V727.48987854251H820">
</path>
<path class="link" d="M637.8072916666666,813.0769230769231H810V776.3967611336031H820">
</path>
<path class="link" d="M637.8072916666666,813.0769230769231H810V813.0769230769231H820">
</path>
<path class="link" d="M637.8072916666666,813.0769230769231H810V849.7570850202429H820">
</path>
<path class="link" d="M637.2604166666666,935.3441295546559H810V898.663967611336H820">
</path>
<path class="link" d="M637.2604166666666,935.3441295546559H810V935.3441295546559H820">
</path>
<path class="link" d="M637.2604166666666,935.3441295546559H810V972.0242914979757H820">
</path>
<path class="link" d="M635.6041666666666,1094.2914979757084H810V1020.9311740890688H820">
</path>
<path class="link" d="M635.6041666666666,1094.2914979757084H810V1057.6113360323886H820">
</path>
<path class="link" d="M635.6041666666666,1094.2914979757084H810V1094.2914979757084H820">
</path>
<path class="link" d="M635.6041666666666,1094.2914979757084H810V1130.9716599190283H820">
</path>
<path class="link" d="M635.6041666666666,1094.2914979757084H810V1167.651821862348H820">
</path>
<path class="link" d="M634.4791666666666,1289.919028340081H810V1216.5587044534414H820">
</path>
<path class="link" d="M634.4791666666666,1289.919028340081H810V1253.238866396761H820">
</path>
<path class="link" d="M634.4791666666666,1289.919028340081H810V1289.919028340081H820">
</path>
<path class="link" d="M634.4791666666666,1289.919028340081H810V1326.5991902834007H820">
</path>
<path class="link" d="M634.4791666666666,1289.919028340081H810V1363.2793522267207H820">
</path>
<path class="link" d="M657.8229166666666,1448.8663967611335H810V1412.1862348178138H820">
</path>
<path class="link" d="M657.8229166666666,1448.8663967611335H810V1448.8663967611335H820">
</path>
<path class="link" d="M657.8229166666666,1448.8663967611335H810V1485.5465587044534H820">
</path>
<g class="node" transform="translate(0,574.6558704453441)">
<rect x="0" y="-17.5" width="82.0234375" height="35" rx="5" class="rect sourceFile">
</rect>
<text y="3" x="7" class="text" style="text-anchor: start;">src/index.ts</text>
<text y="12" x="7" class="secondaryText" style="text-anchor: start;">
</text>
</g>
<g class="node" transform="translate(273.3333333333333,79.47368421052632)">
<rect x="0" y="-17.5" width="80.015625" height="35" rx="5" class="rect sourceFile">
</rect>
<text y="-2" x="7" class="text" style="text-anchor: start;">traversal</text>
<text y="12" x="7" class="secondaryText" style="text-anchor: start;">src/traversal.ts</text>
</g>
<g class="node" transform="translate(273.3333333333333,406.53846153846155)">
<rect x="0" y="-17.5" width="116.703125" height="35" rx="5" class="rect sourceFile">
</rect>
<text y="-2" x="7" class="text" style="text-anchor: start;">commandLine</text>
<text y="12" x="7" class="secondaryText" style="text-anchor: start;">src/cli/commandLine.ts</text>
</g>
<g class="node" transform="translate(273.3333333333333,641.9028340080971)">
<rect x="0" y="-17.5" width="73.90625" height="35" rx="5" class="rect sourceFile">
</rect>
<text y="-2" x="7" class="text" style="text-anchor: start;">types</text>
<text y="12" x="7" class="secondaryText" style="text-anchor: start;">src/types.d.ts</text>
</g>
<g class="node" transform="translate(273.3333333333333,1069.8380566801618)">
<rect x="0" y="-17.5" width="106.140625" height="35" rx="5" class="rect sourceFile">
</rect>
<text y="-2" x="7" class="text" style="text-anchor: start;">outputFormats</text>
<text y="12" x="7" class="secondaryText" style="text-anchor: start;">src/outputFormats.ts</text>
</g>
<g class="node" transform="translate(546.6666666666666,24.453441295546558)">
<rect x="0" y="-17.5" width="74.35546875" height="35" rx="5" class="rect nodeModule">
</rect>
<text y="3" x="7" class="text" style="text-anchor: start;">typescript</text>
<text y="12" x="7" class="secondaryText" style="text-anchor: start;">
</text>
</g>
<g class="node" transform="translate(546.6666666666666,61.13360323886639)">
<rect x="0" y="-17.5" width="26.99609375" height="35" rx="5" class="rect unknown">
</rect>
<text y="3" x="7" class="text" style="text-anchor: start;">fs</text>
<text y="12" x="7" class="secondaryText" style="text-anchor: start;">
</text>
</g>
<g class="node" transform="translate(546.6666666666666,97.81376518218623)">
<rect x="0" y="-17.5" width="73.90625" height="35" rx="5" class="rect sourceFile">
</rect>
<text y="-2" x="7" class="text" style="text-anchor: start;">types</text>
<text y="12" x="7" class="secondaryText" style="text-anchor: start;">src/types.d.ts</text>
</g>
<g class="node" transform="translate(546.6666666666666,134.49392712550608)">
<rect x="0" y="-17.5" width="133.9375" height="35" rx="5" class="rect sourceFile">
</rect>
<text y="-2" x="7" class="text" style="text-anchor: start;">importParser</text>
<text y="12" x="7" class="secondaryText" style="text-anchor: start;">src/helpers/importParser.ts</text>
</g>
<g class="node" transform="translate(546.6666666666666,220.08097165991902)">
<rect x="0" y="-17.5" width="84.3515625" height="35" rx="5" class="rect nodeModule">
</rect>
<text y="3" x="7" class="text" style="text-anchor: start;">commander</text>
<text y="12" x="7" class="secondaryText" style="text-anchor: start;">
</text>
</g>
<g class="node" transform="translate(546.6666666666666,256.7611336032389)">
<rect x="0" y="-17.5" width="73.90625" height="35" rx="5" class="rect sourceFile">
</rect>
<text y="-2" x="7" class="text" style="text-anchor: start;">types</text>
<text y="12" x="7" class="secondaryText" style="text-anchor: start;">src/types.d.ts</text>
</g>
<g class="node" transform="translate(546.6666666666666,293.4412955465587)">
<rect x="0" y="-17.5" width="113.9375" height="35" rx="5" class="rect sourceFile">
</rect>
<text y="-2" x="7" class="text" style="text-anchor: start;">tsConfig</text>
<text y="12" x="7" class="secondaryText" style="text-anchor: start;">src/helpers/tsConfig.ts</text>
</g>
<g class="node" transform="translate(546.6666666666666,434.0485829959514)">
<rect x="0" y="-17.5" width="148.953125" height="35" rx="5" class="rect sourceFile">
</rect>
<text y="-2" x="7" class="text" style="text-anchor: start;">configFileParser</text>
<text y="12" x="7" class="secondaryText" style="text-anchor: start;">src/helpers/configFileParser.ts</text>
</g>
<g class="node" transform="translate(546.6666666666666,592.995951417004)">
<rect x="0" y="-17.5" width="109.484375" height="35" rx="5" class="rect sourceFile">
</rect>
<text y="-2" x="7" class="text" style="text-anchor: start;">optionMerge</text>
<text y="12" x="7" class="secondaryText" style="text-anchor: start;">src/cli/optionMerge.ts</text>
</g>
<g class="node" transform="translate(546.6666666666666,641.9028340080971)">
<rect x="0" y="-17.5" width="74.35546875" height="35" rx="5" class="rect nodeModule">
</rect>
<text y="3" x="7" class="text" style="text-anchor: start;">typescript</text>
<text y="12" x="7" class="secondaryText" style="text-anchor: start;">
</text>
</g>
<g class="node" transform="translate(546.6666666666666,690.8097165991902)">
<rect x="0" y="-17.5" width="73.90625" height="35" rx="5" class="rect sourceFile">
</rect>
<text y="-2" x="7" class="text" style="text-anchor: start;">types</text>
<text y="12" x="7" class="secondaryText" style="text-anchor: start;">src/types.d.ts</text>
</g>
<g class="node" transform="translate(546.6666666666666,727.48987854251)">
<rect x="0" y="-17.5" width="106.71875" height="35" rx="5" class="rect sourceFile">
</rect>
<text y="-2" x="7" class="text" style="text-anchor: start;">console</text>
<text y="12" x="7" class="secondaryText" style="text-anchor: start;">src/output/console.ts</text>
</g>
<g class="node" transform="translate(546.6666666666666,813.0769230769231)">
<rect x="0" y="-17.5" width="91.140625" height="35" rx="5" class="rect sourceFile">
</rect>
<text y="-2" x="7" class="text" style="text-anchor: start;">html</text>
<text y="12" x="7" class="secondaryText" style="text-anchor: start;">src/output/html.ts</text>
</g>
<g class="node" transform="translate(546.6666666666666,935.3441295546559)">
<rect x="0" y="-17.5" width="90.59375" height="35" rx="5" class="rect sourceFile">
</rect>
<text y="-2" x="7" class="text" style="text-anchor: start;">json</text>
<text y="12" x="7" class="secondaryText" style="text-anchor: start;">src/output/json.ts</text>
</g>
<g class="node" transform="translate(546.6666666666666,1094.2914979757084)">
<rect x="0" y="-17.5" width="88.9375" height="35" rx="5" class="rect sourceFile">
</rect>
<text y="-2" x="7" class="text" style="text-anchor: start;">png</text>
<text y="12" x="7" class="secondaryText" style="text-anchor: start;">src/output/png.ts</text>
</g>
<g class="node" transform="translate(546.6666666666666,1289.919028340081)">
<rect x="0" y="-17.5" width="87.8125" height="35" rx="5" class="rect sourceFile">
</rect>
<text y="-2" x="7" class="text" style="text-anchor: start;">svg</text>
<text y="12" x="7" class="secondaryText" style="text-anchor: start;">src/output/svg.ts</text>
</g>
<g class="node" transform="translate(546.6666666666666,1448.8663967611335)">
<rect x="0" y="-17.5" width="111.15625" height="35" rx="5" class="rect sourceFile">
</rect>
<text y="-2" x="7" class="text" style="text-anchor: start;">mermaid</text>
<text y="12" x="7" class="secondaryText" style="text-anchor: start;">src/output/mermaid.ts</text>
</g>
<g class="node" transform="translate(820,61.13360323886639)">
<rect x="0" y="-17.5" width="74.35546875" height="35" rx="5" class="rect nodeModule">
</rect>
<text y="3" x="7" class="text" style="text-anchor: start;">typescript</text>
<text y="12" x="7" class="secondaryText" style="text-anchor: start;">
</text>
</g>
<g class="node" transform="translate(820,97.81376518218623)">
<rect x="0" y="-17.5" width="40.34375" height="35" rx="5" class="rect unknown">
</rect>
<text y="3" x="7" class="text" style="text-anchor: start;">path</text>
<text y="12" x="7" class="secondaryText" style="text-anchor: start;">
</text>
</g>
<g class="node" transform="translate(820,134.49392712550608)">
<rect x="0" y="-17.5" width="26.99609375" height="35" rx="5" class="rect unknown">
</rect>
<text y="3" x="7" class="text" style="text-anchor: start;">fs</text>
<text y="12" x="7" class="secondaryText" style="text-anchor: start;">
</text>
</g>
<g class="node" transform="translate(820,171.1740890688259)">
<rect x="0" y="-17.5" width="86.71875" height="35" rx="5" class="rect nodeModule">
</rect>
<text y="3" x="7" class="text" style="text-anchor: start;">@types/uuid</text>
<text y="12" x="7" class="secondaryText" style="text-anchor: start;">
</text>
</g>
<g class="node" transform="translate(820,207.85425101214574)">
<rect x="0" y="-17.5" width="73.90625" height="35" rx="5" class="rect sourceFile">
</rect>
<text y="-2" x="7" class="text" style="text-anchor: start;">types</text>
<text y="12" x="7" class="secondaryText" style="text-anchor: start;">src/types.d.ts</text>
</g>
<g class="node" transform="translate(820,256.7611336032389)">
<rect x="0" y="-17.5" width="74.35546875" height="35" rx="5" class="rect nodeModule">
</rect>
<text y="3" x="7" class="text" style="text-anchor: start;">typescript</text>
<text y="12" x="7" class="secondaryText" style="text-anchor: start;">
</text>
</g>
<g class="node" transform="translate(820,293.4412955465587)">
<rect x="0" y="-17.5" width="26.99609375" height="35" rx="5" class="rect unknown">
</rect>
<text y="3" x="7" class="text" style="text-anchor: start;">fs</text>
<text y="12" x="7" class="secondaryText" style="text-anchor: start;">
</text>
</g>
<g class="node" transform="translate(820,330.12145748987854)">
<rect x="0" y="-17.5" width="40.34375" height="35" rx="5" class="rect unknown">
</rect>
<text y="3" x="7" class="text" style="text-anchor: start;">path</text>
<text y="12" x="7" class="secondaryText" style="text-anchor: start;">
</text>
</g>
<g class="node" transform="translate(820,379.02834008097165)">
<rect x="0" y="-17.5" width="40.34375" height="35" rx="5" class="rect unknown">
</rect>
<text y="3" x="7" class="text" style="text-anchor: start;">path</text>
<text y="12" x="7" class="secondaryText" style="text-anchor: start;">
</text>
</g>
<g class="node" transform="translate(820,415.7085020242915)">
<rect x="0" y="-17.5" width="73.90625" height="35" rx="5" class="rect sourceFile">
</rect>
<text y="-2" x="7" class="text" style="text-anchor: start;">types</text>
<text y="12" x="7" class="secondaryText" style="text-anchor: start;">src/types.d.ts</text>
</g>
<g class="node" transform="translate(820,452.3886639676113)">
<rect x="0" y="-17.5" width="74.35546875" height="35" rx="5" class="rect nodeModule">
</rect>
<text y="3" x="7" class="text" style="text-anchor: start;">typescript</text>
<text y="12" x="7" class="secondaryText" style="text-anchor: start;">
</text>
</g>
<g class="node" transform="translate(820,489.06882591093114)">
<rect x="0" y="-17.5" width="26.99609375" height="35" rx="5" class="rect unknown">
</rect>
<text y="3" x="7" class="text" style="text-anchor: start;">fs</text>
<text y="12" x="7" class="secondaryText" style="text-anchor: start;">
</text>
</g>
<g class="node" transform="translate(820,537.9757085020243)">
<rect x="0" y="-17.5" width="106.140625" height="35" rx="5" class="rect sourceFile">
</rect>
<text y="-2" x="7" class="text" style="text-anchor: start;">outputFormats</text>
<text y="12" x="7" class="secondaryText" style="text-anchor: start;">src/outputFormats.ts</text>
</g>
<g class="node" transform="translate(820,574.6558704453441)">
<rect x="0" y="-17.5" width="73.90625" height="35" rx="5" class="rect sourceFile">
</rect>
<text y="-2" x="7" class="text" style="text-anchor: start;">types</text>
<text y="12" x="7" class="secondaryText" style="text-anchor: start;">src/types.d.ts</text>
</g>
<g class="node" transform="translate(820,611.336032388664)">
<rect x="0" y="-17.5" width="26.99609375" height="35" rx="5" class="rect unknown">
</rect>
<text y="3" x="7" class="text" style="text-anchor: start;">fs</text>
<text y="12" x="7" class="secondaryText" style="text-anchor: start;">
</text>
</g>
<g class="node" transform="translate(820,648.0161943319838)">
<rect x="0" y="-17.5" width="116.703125" height="35" rx="5" class="rect sourceFile">
</rect>
<text y="-2" x="7" class="text" style="text-anchor: start;">commandLine</text>
<text y="12" x="7" class="secondaryText" style="text-anchor: start;">src/cli/commandLine.ts</text>
</g>
<g class="node" transform="translate(820,727.48987854251)">
<rect x="0" y="-17.5" width="73.90625" height="35" rx="5" class="rect sourceFile">
</rect>
<text y="-2" x="7" class="text" style="text-anchor: start;">types</text>
<text y="12" x="7" class="secondaryText" style="text-anchor: start;">src/types.d.ts</text>
</g>
<g class="node" transform="translate(820,776.3967611336031)">
<rect x="0" y="-17.5" width="26.99609375" height="35" rx="5" class="rect unknown">
</rect>
<text y="3" x="7" class="text" style="text-anchor: start;">fs</text>
<text y="12" x="7" class="secondaryText" style="text-anchor: start;">
</text>
</g>
<g class="node" transform="translate(820,813.0769230769231)">
<rect x="0" y="-17.5" width="73.90625" height="35" rx="5" class="rect sourceFile">
</rect>
<text y="-2" x="7" class="text" style="text-anchor: start;">types</text>
<text y="12" x="7" class="secondaryText" style="text-anchor: start;">src/types.d.ts</text>
</g>
<g class="node" transform="translate(820,849.7570850202429)">
<rect x="0" y="-17.5" width="40.34375" height="35" rx="5" class="rect unknown">
</rect>
<text y="3" x="7" class="text" style="text-anchor: start;">path</text>
<text y="12" x="7" class="secondaryText" style="text-anchor: start;">
</text>
</g>
<g class="node" transform="translate(820,898.663967611336)">
<rect x="0" y="-17.5" width="40.34375" height="35" rx="5" class="rect unknown">
</rect>
<text y="3" x="7" class="text" style="text-anchor: start;">path</text>
<text y="12" x="7" class="secondaryText" style="text-anchor: start;">
</text>
</g>
<g class="node" transform="translate(820,935.3441295546559)">
<rect x="0" y="-17.5" width="73.90625" height="35" rx="5" class="rect sourceFile">
</rect>
<text y="-2" x="7" class="text" style="text-anchor: start;">types</text>
<text y="12" x="7" class="secondaryText" style="text-anchor: start;">src/types.d.ts</text>
</g>
<g class="node" transform="translate(820,972.0242914979757)">
<rect x="0" y="-17.5" width="26.99609375" height="35" rx="5" class="rect unknown">
</rect>
<text y="3" x="7" class="text" style="text-anchor: start;">fs</text>
<text y="12" x="7" class="secondaryText" style="text-anchor: start;">
</text>
</g>
<g class="node" transform="translate(820,1020.9311740890688)">
<rect x="0" y="-17.5" width="127.31640625" height="35" rx="5" class="rect nodeModule">
</rect>
<text y="3" x="7" class="text" style="text-anchor: start;">node-html-to-image</text>
<text y="12" x="7" class="secondaryText" style="text-anchor: start;">
</text>
</g>
<g class="node" transform="translate(820,1057.6113360323886)">
<rect x="0" y="-17.5" width="73.90625" height="35" rx="5" class="rect sourceFile">
</rect>
<text y="-2" x="7" class="text" style="text-anchor: start;">types</text>
<text y="12" x="7" class="secondaryText" style="text-anchor: start;">src/types.d.ts</text>
</g>
<g class="node" transform="translate(820,1094.2914979757084)">
<rect x="0" y="-17.5" width="91.140625" height="35" rx="5" class="rect sourceFile">
</rect>
<text y="-2" x="7" class="text" style="text-anchor: start;">html</text>
<text y="12" x="7" class="secondaryText" style="text-anchor: start;">src/output/html.ts</text>
</g>
<g class="node" transform="translate(820,1130.9716599190283)">
<rect x="0" y="-17.5" width="40.34375" height="35" rx="5" class="rect unknown">
</rect>
<text y="3" x="7" class="text" style="text-anchor: start;">path</text>
<text y="12" x="7" class="secondaryText" style="text-anchor: start;">
</text>
</g>
<g class="node" transform="translate(820,1167.651821862348)">
<rect x="0" y="-17.5" width="26.99609375" height="35" rx="5" class="rect unknown">
</rect>
<text y="3" x="7" class="text" style="text-anchor: start;">fs</text>
<text y="12" x="7" class="secondaryText" style="text-anchor: start;">
</text>
</g>
<g class="node" transform="translate(820,1216.5587044534414)">
<rect x="0" y="-17.5" width="74.337890625" height="35" rx="5" class="rect nodeModule">
</rect>
<text y="3" x="7" class="text" style="text-anchor: start;">puppeteer</text>
<text y="12" x="7" class="secondaryText" style="text-anchor: start;">
</text>
</g>
<g class="node" transform="translate(820,1253.238866396761)">
<rect x="0" y="-17.5" width="73.90625" height="35" rx="5" class="rect sourceFile">
</rect>
<text y="-2" x="7" class="text" style="text-anchor: start;">types</text>
<text y="12" x="7" class="secondaryText" style="text-anchor: start;">src/types.d.ts</text>
</g>
<g class="node" transform="translate(820,1289.919028340081)">
<rect x="0" y="-17.5" width="91.140625" height="35" rx="5" class="rect sourceFile">
</rect>
<text y="-2" x="7" class="text" style="text-anchor: start;">html</text>
<text y="12" x="7" class="secondaryText" style="text-anchor: start;">src/output/html.ts</text>
</g>
<g class="node" transform="translate(820,1326.5991902834007)">
<rect x="0" y="-17.5" width="40.34375" height="35" rx="5" class="rect unknown">
</rect>
<text y="3" x="7" class="text" style="text-anchor: start;">path</text>
<text y="12" x="7" class="secondaryText" style="text-anchor: start;">
</text>
</g>
<g class="node" transform="translate(820,1363.2793522267207)">
<rect x="0" y="-17.5" width="26.99609375" height="35" rx="5" class="rect unknown">
</rect>
<text y="3" x="7" class="text" style="text-anchor: start;">fs</text>
<text y="12" x="7" class="secondaryText" style="text-anchor: start;">
</text>
</g>
<g class="node" transform="translate(820,1412.1862348178138)">
<rect x="0" y="-17.5" width="73.90625" height="35" rx="5" class="rect sourceFile">
</rect>
<text y="-2" x="7" class="text" style="text-anchor: start;">types</text>
<text y="12" x="7" class="secondaryText" style="text-anchor: start;">src/types.d.ts</text>
</g>
<g class="node" transform="translate(820,1448.8663967611335)">
<rect x="0" y="-17.5" width="26.99609375" height="35" rx="5" class="rect unknown">
</rect>
<text y="3" x="7" class="text" style="text-anchor: start;">fs</text>
<text y="12" x="7" class="secondaryText" style="text-anchor: start;">
</text>
</g>
<g class="node" transform="translate(820,1485.5465587044534)">
<rect x="0" y="-17.5" width="40.34375" height="35" rx="5" class="rect unknown">
</rect>
<text y="3" x="7" class="text" style="text-anchor: start;">path</text>
<text y="12" x="7" class="secondaryText" style="text-anchor: start;">
</text>
</g>
</g>
</svg>